<?xml version="1.0" encoding="UTF-8"?><svg id="Layer_1" xmlns="http://www.w3.org/2000/svg" xmlns:xlink="http://www.w3.org/1999/xlink" viewBox="0 0 3040 560"><defs><style>.cls-1{fill:none;}.cls-2{fill:url(#linear-gradient);}.cls-3{clip-path:url(#clippath);}.cls-4{fill:#00b8d9;}.cls-5{fill:#00a3bf;}.cls-6{fill:url(#linear-gradient-3);}.cls-7{fill:url(#linear-gradient-4);}.cls-8{fill:url(#linear-gradient-2);}.cls-9{fill:url(#linear-gradient-6);}.cls-10{fill:url(#linear-gradient-7);}.cls-11{fill:url(#linear-gradient-5);}</style><clipPath id="clippath"><rect class="cls-1" width="3040" height="560"/></clipPath><linearGradient id="linear-gradient" x1="1520" y1="357.6" x2="1520" y2="-1352.4" gradientTransform="translate(0 1122)" gradientUnits="userSpaceOnUse"><stop offset="0" stop-color="#008da6"/><stop offset=".99" stop-color="#008da6"/></linearGradient><linearGradient id="linear-gradient-2" x1="2499.55" y1="-1064.38" x2="3296.42" y2="-1064.38" gradientTransform="translate(0 1122)" gradientUnits="userSpaceOnUse"><stop offset=".23" stop-color="#00a3bf"/><stop offset="1" stop-color="#00b8d9"/></linearGradient><linearGradient id="linear-gradient-3" x1="-600.78" y1="-989.64" x2="265.15" y2="-989.64" gradientTransform="translate(0 1122)" gradientUnits="userSpaceOnUse"><stop offset=".24" stop-color="#00a3bf"/><stop offset="1" stop-color="#00b8d9"/></linearGradient><linearGradient id="linear-gradient-4" x1="-600.78" y1="-1063.96" x2="265.15" y2="-1063.96" gradientTransform="translate(0 1122)" gradientUnits="userSpaceOnUse"><stop offset=".24" stop-color="#00a3bf"/><stop offset="1" stop-color="#00b8d9"/></linearGradient><linearGradient id="linear-gradient-5" x1="1522.58" y1="-706.17" x2="1701.4" y2="-706.17" gradientTransform="translate(0 1122)" gradientUnits="userSpaceOnUse"><stop offset=".24" stop-color="#00a3bf"/><stop offset="1" stop-color="#00b8d9"/></linearGradient><linearGradient id="linear-gradient-6" x1="260.16" y1="-1054.9" x2="1531.94" y2="-1054.9" gradientTransform="translate(0 1122)" gradientUnits="userSpaceOnUse"><stop offset="0" stop-color="#00b8d9"/><stop offset=".76" stop-color="#00a3bf"/></linearGradient><linearGradient id="linear-gradient-7" x1="260.16" y1="-1074.94" x2="1531.94" y2="-1074.94" gradientTransform="translate(0 1122)" gradientUnits="userSpaceOnUse"><stop offset="0" stop-color="#00b8d9"/><stop offset=".76" stop-color="#00a3bf"/></linearGradient></defs><g class="cls-3"><g id="_1"><rect class="cls-2" y="-230.4" width="3040" height="1710"/><path class="cls-1" d="M1269.18,1175.46c6.13,0,12.18,1.33,17.75,3.88l375.34-491.4c-13.22-18.35-9.07-43.95,9.28-57.17l1.47-1.01-118.75-422.94c-36.46,7.27-74.28-1.69-103.6-24.54L609.81,930.39c3.37,7.75,5.26,16.06,5.56,24.51,.32,8.55-.96,17.08-3.77,25.16l621.46,215.51c7.75-12.5,21.42-20.11,36.13-20.11Z"/><path class="cls-1" d="M1572.41,201.85l118.29,421.51c1.58-.19,3.16-.28,4.75-.28,22.64,0,40.98,18.37,40.97,41.01,0,6.71-1.66,13.32-4.81,19.25l301.89,240.08c34.98-37.89,89.31-51.04,137.75-33.34l227.13-454.23c-1.58-.9-3.02-1.81-4.51-2.74l-.68-.43c-2.14-1.35-4.26-2.74-6.33-4.16l-.46-.32c-56.6-38.76-90.42-102.97-90.38-171.57,0-6.87,.33-13.74,1.01-20.58l-647.93-110.36c-13.07,35.46-41.15,63.33-76.7,76.16Z"/><path class="cls-8" d="M3040-27.88v-21.41l-358.39,197.39c3.26,5.28,6.28,10.75,9.06,16.42L3040-27.88Z"/><path class="cls-4" d="M475.44,426.87l-20.35-34.3c-16.14,15.64-16.55,41.4-.91,57.54,15.64,16.14,41.4,16.55,57.54,.91,16.14-15.64,16.55-41.4,.91-57.54-10.71-11.05-26.74-15.12-41.42-10.51l20.35,34.33-16.12,9.56Z"/><path class="cls-4" d="M229.12,74.95c11.26,12.26,28.63,16.84,44.48,11.73l-16.47-27.77-28.01,16.04Z"/><path class="cls-4" d="M289.75,77.1c5.77-5.45,9.9-12.4,11.92-20.08l-24.37-.84,12.45,20.92Z"/><path class="cls-4" d="M302.29,38.28c-3.45-18.2-18.27-32.09-36.65-34.34l3.36,33.25,33.3,1.09Z"/><path class="cls-4" d="M247,5.83c-21.88,7.33-33.94,30.77-27.17,52.84l30.75-17.59-3.58-35.24Z"/><path class="cls-6" d="M0,184.43v21.61L229.12,74.95c-4.29-4.66-7.47-10.22-9.33-16.28L0,184.43Z"/><path class="cls-4" d="M252.41,50.97l8.08-4.75-9.34,.93-.6-6.05-30.75,17.59c1.85,6.06,5.04,11.62,9.33,16.28l28.01-16.04-4.72-7.96Z"/><path class="cls-7" d="M252.41,50.97l8.08-4.75-9.34,.93-.6-6.05-30.75,17.59c1.85,6.06,5.04,11.62,9.33,16.28l28.01-16.04-4.72-7.96Z"/><path class="cls-5" d="M2421.95,447.79c-2.26-.97-4.5-1.96-6.71-3.02l-.57-.27c-2.28-1.08-4.51-2.2-6.75-3.37l-.84-.44c-2.94-1.55-5.84-3.17-8.69-4.86l-227.13,454.23c9.02,3.33,17.64,7.66,25.7,12.92l227.13-454.26-1.58-.7-.55-.22Z"/><path class="cls-5" d="M2297.04,235.96c.93-9.55,2.52-19.02,4.75-28.36l-646-109.93c-1.19,9.57-3.46,18.97-6.78,28.02l648.03,110.26Z"/><path class="cls-5" d="M609.81,930.39L1450.75,182.3c-7.6-5.93-14.5-12.69-20.58-20.17L593.04,906.83c7.19,6.58,12.9,14.61,16.77,23.56Z"/><path class="cls-11" d="M1690.7,623.33l-118.29-421.48c-5.89,2.12-11.93,3.8-18.07,5.02l118.75,422.94c5.28-3.5,11.31-5.72,17.61-6.48Z"/><path class="cls-9" d="M1401.69,77.13L302.29,38.28c1.17,6.22,.95,12.62-.65,18.75l1100.75,38.9c-.54-4.73-.81-9.49-.81-14.25,0-1.54,.06-3.04,.11-4.54Z"/><path class="cls-4" d="M302.29,38.28l-33.25-1.17,.62,6.08,7.7,12.98,24.34,.85c1.6-6.12,1.82-12.53,.65-18.75h-.05Z"/><path class="cls-10" d="M302.29,38.28l-33.25-1.17,.62,6.08,7.7,12.98,24.34,.85c1.6-6.12,1.82-12.53,.65-18.75h-.05Z"/><polygon class="cls-4" points="251.15 47.13 260.49 46.19 268.55 41.41 269.61 43.18 268.99 37.1 265.64 3.95 241.9 -230.4 223.06 -230.4 246.97 5.83 250.55 41.08 251.15 47.13"/><path class="cls-5" d="M1450.75,182.3c55.54,43.37,135.73,33.51,179.1-22.03,14.16-18.14,23.16-39.76,26.03-62.6,.67-5.32,1.01-10.67,1.03-16.02-.02-68.59-54.23-124.91-122.77-127.54-1.58,0-3.26-.13-4.89-.13-4.63,0-9.25,.26-13.85,.78-63.03,6.9-111.45,59.01-113.7,122.38,0,1.58-.11,3.01-.11,4.51,0,4.76,.27,9.52,.81,14.25,3.85,34.12,21.28,65.26,48.35,86.37v.03Z"/><polygon class="cls-4" points="269.61 43.18 268.55 41.41 260.49 46.19 252.41 50.97 257.13 58.91 273.6 86.68 455.1 392.58 475.44 426.87 491.56 417.31 471.22 382.98 289.72 77.1 277.3 56.17 269.61 43.18"/><path class="cls-5" d="M3040,693.65v-36.5l-363.53-284.08c-5.38,7.94-11.3,15.51-17.72,22.64l381.25,297.94Z"/><path class="cls-4" d="M2627.86,423.82c-2.11,1.57-4.26,3.1-6.46,4.59,2.19-1.49,4.34-3.02,6.46-4.59Z"/><path class="cls-4" d="M2537.4,461.98c-2.44,.4-4.91,.74-7.38,1.06,2.47-.32,4.89-.67,7.38-1.06Z"/><path class="cls-4" d="M2453.12,458.35c-2.41-.6-4.75-1.25-7.14-1.93,2.36,.68,4.73,1.33,7.14,1.93Z"/><path class="cls-4" d="M2546.29,460.36c-2.45,.49-4.92,.95-7.41,1.36,2.49-.41,4.96-.87,7.41-1.36Z"/><path class="cls-4" d="M2621.22,428.54c-2.11,1.46-4.27,2.87-6.48,4.23,2.18-1.36,4.34-2.77,6.48-4.23Z"/><path class="cls-4" d="M2504.07,464.68c2.58,0,5.16,0,7.74-.16-2.58,.16-5.16,.16-7.74,.16Z"/><path class="cls-4" d="M2529.06,463.1c-2.29,.26-4.6,.5-6.94,.71,2.33-.17,4.64-.41,6.94-.71Z"/><path class="cls-4" d="M2520.86,463.97c-2.47,.19-4.96,.35-7.46,.46,2.52-.11,4.99-.27,7.46-.46Z"/><path class="cls-4" d="M2504.07,464.68c-2.61,0-5.19,0-7.77-.16,2.58,.05,5.16,.16,7.77,.16Z"/><path class="cls-4" d="M2585.58,448.03c-2.32,.99-4.67,1.94-7.05,2.85,2.42-.91,4.77-1.86,7.05-2.85Z"/><path class="cls-4" d="M2592.82,444.8c-2.3,1.09-4.59,2.14-6.94,3.17,2.34-1.03,4.64-2.07,6.94-3.17Z"/><path class="cls-4" d="M2577.67,451.26c-2.38,.9-4.75,1.77-7.17,2.58,2.33-.81,4.72-1.68,7.17-2.58Z"/><path class="cls-4" d="M2562.1,456.43c-2.38,.68-4.75,1.33-7.17,1.93,2.41-.6,4.8-1.25,7.17-1.93Z"/><path class="cls-4" d="M2553.77,458.65c-2.38,.59-4.75,1.12-7.16,1.58,2.41-.46,4.78-1,7.16-1.58Z"/><path class="cls-4" d="M2600.15,441.16c-2.25,1.17-4.52,2.31-6.82,3.4,2.3-1.09,4.56-2.22,6.82-3.4Z"/><path class="cls-4" d="M2570.29,453.87c-2.36,.81-4.75,1.58-7.14,2.25,2.39-.71,4.78-1.46,7.14-2.25Z"/><path class="cls-4" d="M2614.18,433.13c-4.34,2.72-8.79,5.28-13.35,7.68,4.61-2.41,9.06-4.97,13.35-7.68Z"/><path class="cls-4" d="M2469.19,461.72c-2.47-.43-4.92-.87-7.38-1.38,2.45,.51,4.91,.95,7.38,1.38Z"/><path class="cls-4" d="M2485.98,463.84c-2.33-.19-4.65-.43-6.95-.71,2.3,.29,4.62,.52,6.95,.71Z"/><path class="cls-4" d="M2444.84,456.07c-2.4-.7-4.77-1.44-7.12-2.23,2.35,.79,4.73,1.54,7.12,2.23Z"/><path class="cls-4" d="M2658.75,395.71c6.41-7.14,12.33-14.7,17.72-22.64,41.82-61.92,47.26-141.51,14.25-208.54-2.79-5.63-5.81-11.1-9.06-16.42-59.79-98.08-187.77-129.13-285.85-69.34-55.76,33.99-92.32,92.19-98.73,157.18-.66,6.79-1,13.65-1.01,20.58-.05,68.6,33.77,132.81,90.38,171.57-2.11-1.46-4.23-2.94-6.33-4.48,13.66-9.93,28.47-18.17,44.11-24.54,11.21-4.57,20.52-12.84,26.39-23.42h-45.92c-8.43-.02-15.24-6.88-15.22-15.31,0-2.52,.64-5.01,1.84-7.22,6.42-12.28,9.77-25.94,9.75-39.8v-75.41c0-8.42,1.03-16.81,3.06-24.98,10.36-55.09,63.41-91.35,118.5-80.99,37.25,7,67.49,34.17,78.42,70.46,3.75,11.4,5.65,23.33,5.64,35.34v75.64c-.03,13.87,3.29,27.54,9.69,39.85,3.99,7.43,1.2,16.68-6.23,20.67-2.2,1.18-4.67,1.81-7.17,1.82h-45.76c5.97,10.65,15.38,18.95,26.68,23.56,15.58,6.39,30.33,14.63,43.95,24.53,11.21-8.31,21.55-17.72,30.89-28.09Z"/><path class="cls-4" d="M2478.07,463.1c-2.47-.32-4.94-.68-7.38-1.08,2.47,.33,4.91,.7,7.38,1.08Z"/><path class="cls-4" d="M2437.62,453.81c-2.4-.8-4.77-1.66-7.12-2.56,2.36,.91,4.74,1.76,7.12,2.56Z"/><path class="cls-4" d="M2386.86,428.49c2.07,1.42,4.2,2.82,6.33,4.16-2.14-1.35-4.26-2.8-6.33-4.16Z"/><path class="cls-4" d="M2494.72,464.43c-2.5-.11-4.99-.27-7.46-.46,2.47,.19,4.91,.35,7.46,.46Z"/><path class="cls-4" d="M2461.36,460.25c-2.37-.51-4.75-1.05-7.05-1.58,2.33,.54,4.61,1.09,7.05,1.58Z"/><path class="cls-4" d="M2415.23,444.77c2.22,1.06,4.45,2.06,6.71,3.02-2.26-.97-4.5-1.96-6.71-3.02Z"/><path class="cls-4" d="M2407.92,441.12c2.23,1.17,4.46,2.3,6.75,3.37-2.28-1.08-4.51-2.2-6.75-3.37Z"/><path class="cls-4" d="M2422.5,448.01l1.58,.7c1.76,.73,3.53,1.42,5.3,2.12-2.33-.9-4.65-1.84-6.89-2.82Z"/><path class="cls-4" d="M2407.08,440.68c-4.5-2.38-8.91-4.91-13.2-7.6,1.49,.93,2.99,1.84,4.51,2.74,2.85,1.69,5.75,3.32,8.69,4.86Z"/><path class="cls-5" d="M2557.23,375.73h45.77c8.43-.03,15.24-6.89,15.21-15.32,0-2.5-.63-4.96-1.82-7.17-6.4-12.31-9.72-25.98-9.69-39.85v-75.64c.02-12.01-1.89-23.94-5.64-35.34-16.15-53.67-72.76-84.09-126.43-67.94-36.31,10.93-63.5,41.19-70.5,78.45-2.03,8.17-3.05,16.55-3.06,24.97v75.48c.02,13.86-3.33,27.52-9.75,39.81-4.01,7.43-1.23,16.7,6.2,20.7,2.21,1.19,4.67,1.82,7.18,1.83h45.92c-5.88,10.58-15.19,18.84-26.39,23.42-15.64,6.38-30.45,14.62-44.11,24.54,2.11,1.58,4.23,3.02,6.33,4.48l.46,.32c2.07,1.42,4.2,2.82,6.33,4.16l.68,.43c4.29,2.69,8.71,5.22,13.2,7.6l.84,.44c2.23,1.17,4.46,2.3,6.75,3.37l.57,.27c2.22,1.06,4.45,2.06,6.71,3.02l.49,.22c2.3,.98,4.62,1.92,6.95,2.82l1.11,.41c2.36,.91,4.74,1.76,7.12,2.56h.1c2.35,.79,4.73,1.54,7.12,2.23l1.14,.35c2.36,.68,4.75,1.33,7.14,1.93l1.19,.28c2.33,.57,4.75,1.11,7.05,1.58l.46,.09c2.45,.51,4.91,.95,7.38,1.38l1.58,.24c2.44,.4,4.91,.76,7.38,1.08l.95,.09c2.3,.28,4.62,.52,6.95,.71l1.28,.13c2.47,.19,4.96,.35,7.46,.46h1.58c2.58,.09,5.16,.16,7.77,.16h0c2.58,0,5.16,0,7.74-.16h1.58c2.5-.11,4.99-.27,7.46-.46l1.27-.11c2.32-.2,4.63-.44,6.94-.71l.97-.11c2.47-.32,4.94-.67,7.38-1.06l1.47-.25c2.49-.41,4.96-.87,7.41-1.36h.33c2.41-.51,4.75-1.05,7.16-1.58l1.16-.28c2.41-.6,4.75-1.25,7.17-1.93l1.05-.32c2.39-.71,4.75-1.44,7.14-2.25h.13c2.41-.81,4.75-1.68,7.17-2.58l1.01-.38c2.38-.9,4.72-1.85,7.05-2.85l.24-.09c2.34-1,4.64-2.04,6.94-3.17l.51-.24c2.3-1.06,4.56-2.19,6.82-3.4l.68-.35c4.56-2.41,9.01-4.97,13.35-7.68l.57-.36c2.19-1.36,4.34-2.77,6.48-4.23l.17-.13c2.18-1.49,4.34-3.02,6.46-4.59h0c-13.63-9.9-28.4-18.13-43.99-24.53-11.34-4.61-20.78-12.93-26.77-23.61Z"/></g></g></svg>