<svg width="501" height="500" viewBox="0 0 501 500" fill="none" xmlns="http://www.w3.org/2000/svg">
<g clip-path="url(#clip0_38_577)">
<rect x="1" width="500" height="500" rx="40" fill="#FFF0B3"/>
<g clip-path="url(#clip1_38_577)">
<path d="M477 488.111C477 513.269 456.603 533.667 431.444 533.667H158.111C132.953 533.667 112.556 513.269 112.556 488.111V263.898C112.556 238.74 178.509 192 203.667 192H415.785C451.022 192 477 218.331 477 253.215V488.111Z" fill="#F4900C"/>
<path d="M454.222 533.667C454.222 558.825 433.825 579.222 408.667 579.222H180.889C155.731 579.222 135.333 558.825 135.333 533.667V260.333C135.333 213.423 135.094 214.778 192.278 214.778H408.667C433.825 214.778 454.222 235.175 454.222 260.333V533.667Z" fill="#CCD6DD"/>
<path d="M431.444 545.056C431.444 563.927 416.149 579.222 397.278 579.222H146.722C127.851 579.222 112.556 563.927 112.556 545.056V271.722C112.556 252.851 127.851 237.556 146.722 237.556H397.278C416.149 237.556 431.444 252.851 431.444 271.722V545.056Z" fill="#E1E8ED"/>
<path d="M431.444 556.444C431.444 581.603 411.047 602 385.889 602H169.5C144.342 602 123.944 581.603 123.944 556.444V305.889C123.944 280.731 144.342 260.333 169.5 260.333H385.889C411.047 260.333 431.444 280.731 431.444 305.889V556.444Z" fill="#FFAC33"/>
<path d="M408.667 556.444C408.667 581.602 388.269 602 363.111 602H169.5C144.342 602 123.944 581.602 123.944 556.444V328.667C123.944 303.509 144.342 283.111 169.5 283.111H366.926C392.084 283.111 408.667 299.693 408.667 324.851V556.444Z" fill="#FFCC4D"/>
<path d="M169.5 260.333C150.276 260.333 149.786 238.444 158.111 229.014C167.587 218.297 182.313 214.778 208.655 214.778H226.444V192H195.478C150.276 192 112.556 220.472 112.556 253.215V556.444C112.556 581.603 132.953 602 158.111 602H180.889V260.333H169.5Z" fill="#F4900C"/>
<path d="M164.284 476.483C164.284 484.478 156.688 490.958 147.315 490.958C137.953 490.958 130.356 484.478 130.356 476.483C130.356 468.499 137.953 462.008 147.315 462.008C156.688 462.008 164.284 468.488 164.284 476.483Z" fill="#662113"/>
<path d="M145.515 468.42C140.048 469.046 136.495 472.69 133.932 476.722C130.436 482.246 122.464 488.111 112.555 488.111C99.9822 488.111 89.7777 480.469 89.7777 471.028C89.7777 461.586 99.9822 453.944 112.555 453.944V431.212C87.8758 431.451 67.9452 449.15 67.9452 471.028C67.9452 493.054 88.1263 510.889 113.022 510.889C134.137 510.889 151.141 498.987 157.45 481.631C160.605 472.986 152.109 467.691 145.515 468.42Z" fill="#66757F"/>
<path d="M164.284 385.372C164.284 393.367 156.688 399.847 147.315 399.847C137.953 399.847 130.356 393.367 130.356 385.372C130.356 377.388 137.953 370.897 147.315 370.897C156.688 370.897 164.284 377.377 164.284 385.372Z" fill="#662113"/>
<path d="M145.515 377.308C140.048 377.935 136.495 381.579 133.932 385.611C130.436 391.135 122.464 397 112.555 397C99.9822 397 89.7777 389.358 89.7777 379.917C89.7777 370.475 99.9822 362.833 112.555 362.833V340.101C87.8758 340.34 67.9452 358.038 67.9452 379.917C67.9452 401.943 88.1263 419.778 113.022 419.778C134.137 419.778 151.141 407.876 157.45 390.52C160.605 381.875 152.109 376.58 145.515 377.308Z" fill="#66757F"/>
<path d="M164.284 294.261C164.284 302.256 156.688 308.736 147.315 308.736C137.953 308.736 130.356 302.256 130.356 294.261C130.356 286.277 137.953 279.786 147.315 279.786C156.688 279.786 164.284 286.266 164.284 294.261Z" fill="#662113"/>
<path d="M145.515 286.197C140.048 286.824 136.495 290.468 133.932 294.5C130.436 300.023 122.464 305.889 112.555 305.889C99.9822 305.889 89.7777 298.247 89.7777 288.805C89.7777 279.364 99.9822 271.722 112.555 271.722V248.99C87.8872 249.218 67.9452 266.927 67.9452 288.805C67.9452 310.832 88.1263 328.667 113.022 328.667C134.137 328.667 151.141 316.765 157.45 299.408C160.605 290.764 152.109 285.468 145.515 286.197Z" fill="#66757F"/>
</g>
</g>
<defs>
<clipPath id="clip0_38_577">
<rect width="501" height="500" fill="white"/>
</clipPath>
<clipPath id="clip1_38_577">
<rect width="410" height="410" fill="white" transform="translate(67 192)"/>
</clipPath>
</defs>
</svg>
