<svg width="500" height="500" viewBox="0 0 500 500" fill="none" xmlns="http://www.w3.org/2000/svg">
<rect width="500" height="500" rx="40" fill="#FFF0B3"/>
<g clip-path="url(#clip0_38_579)">
<path d="M463.611 500V460.139C463.611 431.826 440.002 410.745 412.27 401.976C407.612 400.507 217.326 402.477 217.326 402.477C190.255 411.531 167.5 432.35 167.5 460.139V500H463.611Z" fill="#E1E8ED"/>
<path d="M404.378 398.946C404.378 414.435 364.619 426.667 315.556 426.667C266.492 426.667 226.745 414.595 226.745 399.106C226.745 398.4 210.687 398.627 210.687 398.627L210.744 410.233C212.042 437.623 258.418 448.864 315.567 448.864C372.477 448.864 418.682 437.372 420.333 409.993L420.504 398.901C420.493 398.889 404.378 398.24 404.378 398.946Z" fill="#EA596E"/>
<path d="M315.556 359.143C257.598 359.143 210.618 376.67 210.618 398.298C210.618 419.925 257.598 437.464 315.556 437.464C373.514 437.464 420.493 419.925 420.493 398.298C420.493 376.67 373.514 359.143 315.556 359.143Z" fill="#BE1931"/>
<path d="M315.556 426.348C266.504 426.348 226.734 413.775 226.734 398.286C226.734 382.809 266.504 370.235 315.556 370.235C364.607 370.235 404.377 382.809 404.377 398.286C404.377 413.786 364.607 426.348 315.556 426.348Z" fill="#292F33"/>
<path d="M314.918 147.73C361.681 147.73 439.603 171.112 439.603 272.416C439.603 373.72 439.603 397.102 416.222 397.102C392.829 397.102 368.935 373.72 314.906 373.72C268.155 373.72 237.644 397.102 213.602 397.102C187.556 397.102 190.221 303.587 190.221 272.416C190.244 171.112 268.166 147.73 314.918 147.73Z" fill="#292F33"/>
<path d="M273.736 397.728C290.432 409.857 307.492 411.475 315.556 411.475C323.619 411.475 340.543 409.857 357.239 397.728V361.227H273.736V397.728Z" fill="#F7DECE"/>
<path d="M273.656 376.761C285.307 389.915 299.748 393.479 315.442 393.479C331.147 393.479 345.588 389.926 357.239 376.761V343.323H273.656V376.761Z" fill="#EEC2AD"/>
<path d="M221.415 268.999C221.415 202.556 263.281 148.698 314.918 148.698C366.555 148.698 408.432 202.556 408.432 268.999C408.432 335.43 366.555 386.145 314.918 386.145C263.281 386.145 221.415 335.442 221.415 268.999Z" fill="#F7DECE"/>
<path d="M314.918 358.129C296.639 358.129 287.061 349.086 286.036 348.049C282.983 345.009 282.983 340.077 286.036 337.036C289.065 334.018 293.917 333.996 296.969 336.957C297.367 337.321 303.267 342.549 314.918 342.549C326.751 342.549 332.65 337.162 332.878 336.945C335.987 334.03 340.884 334.121 343.846 337.173C346.807 340.237 346.807 345.043 343.8 348.049C342.786 349.086 333.22 358.129 314.918 358.129Z" fill="#DF1F32"/>
<path d="M198.535 306.389C198.296 295 198.034 303.838 198.034 301.094C198.034 262.121 221.415 306.72 221.415 278.965C221.415 251.187 236.995 248.409 252.575 232.829C260.376 225.027 275.956 209.755 275.956 209.755C275.956 209.755 314.918 233.295 346.089 233.295C377.249 233.295 408.432 248.955 408.432 280.127C408.432 311.298 431.813 262.087 431.813 301.048C431.813 303.827 431.563 295 431.358 306.389H439.535C439.615 283.612 439.615 284.477 439.615 269.922C439.615 168.618 361.681 130.898 314.929 130.898C268.178 130.898 190.255 167.992 190.255 269.296C190.255 278.327 190.027 283.612 190.346 306.389H198.535Z" fill="#292F33"/>
<path d="M276.924 293.702C271.629 293.702 267.289 289.363 267.289 284.067V274.443C267.289 269.147 271.629 264.808 276.924 264.808C282.22 264.808 286.571 269.147 286.571 274.443V284.067C286.571 289.363 282.22 293.702 276.924 293.702ZM353.97 293.702C348.674 293.702 344.335 289.363 344.335 284.067V274.443C344.335 269.147 348.674 264.808 353.97 264.808C359.266 264.808 363.605 269.147 363.605 274.443V284.067C363.605 289.363 359.266 293.702 353.97 293.702Z" fill="#60352A"/>
<path d="M325.088 323.472H305.829C303.176 323.472 301.012 321.308 301.012 318.655V316.912C301.012 314.259 303.164 312.083 305.829 312.083H325.088C327.73 312.083 329.906 314.247 329.906 316.912V318.655C329.906 321.308 327.73 323.472 325.088 323.472Z" fill="#C1694F"/>
<path d="M429.444 465.833H463.611V500H429.444V465.833Z" fill="#55ACEE"/>
<path d="M440.833 477.222H463.611V500H440.833V477.222Z" fill="#FFCC4D"/>
<path d="M338.379 500C324.735 441.393 269.499 397.5 203.341 397.5C137.183 397.5 81.9581 441.393 68.3142 500H338.379Z" fill="#E1E8ED"/>
<path d="M323.175 500C309.816 449.16 261.31 411.417 203.341 411.417C145.383 411.417 96.8661 449.16 83.5069 500H323.175Z" fill="#292F33"/>
<path d="M311.433 500C298.358 455.162 254.989 422.18 203.352 422.18C151.715 422.18 108.335 455.162 95.2603 500H311.433Z" fill="#FFAC33"/>
<path d="M272.221 489.169L273.394 488.452C282.129 483.133 283.963 470.936 276.811 463.601C271.492 458.135 265.501 453.249 258.976 449.16C252.598 445.174 245.787 442.088 238.658 439.742C229.228 436.644 219.171 442.384 217.406 452.178C216.051 459.695 219.969 467.508 227.144 470.138C236.995 473.76 245.673 479.557 252.564 486.926C257.597 492.301 265.923 492.996 272.221 489.169Z" fill="#FFDC5D"/>
<path d="M137.251 252.428L119.689 245.925L112.856 220.87C111.956 217.567 108.95 215.278 105.522 215.278C102.105 215.278 99.0983 217.567 98.1986 220.87L91.3653 245.925L73.8036 252.428C70.8197 253.522 68.8495 256.369 68.8495 259.546C68.8495 262.724 70.8197 265.571 73.8036 266.665L91.2742 273.133L98.1645 300.626C99.0072 304.009 102.048 306.389 105.522 306.389C109.007 306.389 112.048 304.009 112.89 300.638L119.781 273.145L137.251 266.676C140.235 265.583 142.205 262.735 142.205 259.558C142.205 256.369 140.235 253.522 137.251 252.428Z" fill="#9266CC"/>
<path d="M193.467 142.776L163.742 131.774L152.74 102.049C150.918 97.118 146.214 93.8494 140.953 93.8494C135.702 93.8494 130.999 97.118 129.165 102.049L118.163 131.774L88.4497 142.776C83.507 144.61 80.227 149.302 80.227 154.564C80.227 159.825 83.4956 164.517 88.4383 166.351L118.152 177.353L129.154 207.078C130.987 212.009 135.702 215.278 140.941 215.278C146.203 215.278 150.906 212.009 152.729 207.078L163.73 177.353L193.455 166.351C198.387 164.517 201.667 159.825 201.667 154.564C201.667 149.302 198.387 144.61 193.467 142.776Z" fill="#5DADEC"/>
</g>
<defs>
<clipPath id="clip0_38_579">
<rect width="410" height="410" fill="white" transform="translate(65 90)"/>
</clipPath>
</defs>
</svg>
