<svg width="256" height="257" viewBox="0 0 256 257" fill="none" xmlns="http://www.w3.org/2000/svg">
<g clip-path="url(#clip0)">
<path d="M0 0.599609H256V256.6H0V0.599609Z" fill="white" fill-opacity="0.01"/>
<path d="M128 256.6C198.692 256.6 256 199.292 256 128.6C256 57.9072 198.692 0.599609 128 0.599609C57.3075 0.599609 0 57.9072 0 128.6C0 199.292 57.3075 256.6 128 256.6Z" fill="#00C7E5"/>
<path d="M65.0002 104.9C61.6002 108.6 52.7002 119.1 52.7002 133.8C52.7002 148.5 62.5002 161.6 63.3002 162.5C69.2002 169.8 74.2002 171.2 75.5002 177.6C76.8002 184 73.8002 189.3 71.1002 193.2C116.1 193.2 161.2 191.3 206.2 191.3C203.5 187.6 200 183.6 197.9 175.6C194.8 163.7 197.6 152.7 201.8 141.4C209.7 120.3 211.2 99.2999 201.2 78.5999C192.522 60.9049 178.252 46.5646 160.6 37.7999C152.811 33.8734 144.435 31.2391 135.8 29.9999C130.874 29.2158 125.887 28.8811 120.9 28.9999C116.521 29.1317 112.166 29.7012 107.9 30.6999C93.6002 34.0999 79.9002 42.1999 71.6002 54.4999C57.2002 75.7999 63.8002 100.7 65.0002 104.9Z" fill="#253858"/>
<path d="M160 202.7L131.6 201.1L103.3 202.7C96.294 203.105 89.5251 205.385 83.7004 209.3L55.1004 228.6C53.92 229.433 52.8454 230.407 51.9004 231.5C74.5997 248.305 102.223 257.124 130.461 256.582C158.699 256.039 185.964 246.165 208 228.5L179.5 209.3C173.711 205.388 166.975 203.109 160 202.7Z" fill="#00A3BF"/>
<path d="M170 209.501C169 210.901 153.4 230.301 127.7 228.601C106.2 227.301 94.0002 212.401 92.2002 210.101C97.2404 206.088 100.767 200.482 102.2 194.201C105 180.401 95.6002 170.001 94.4002 168.801L164.9 166.301C163.6 168.301 156.1 179.601 159.9 193.501C161.69 199.68 165.192 205.227 170 209.501Z" fill="url(#paint0_linear)"/>
<path d="M77.3 141.901C84.9215 141.901 91.1 135.722 91.1 128.101C91.1 120.479 84.9215 114.301 77.3 114.301C69.6785 114.301 63.5 120.479 63.5 128.101C63.5 135.722 69.6785 141.901 77.3 141.901Z" fill="url(#paint1_linear)"/>
<path d="M179.3 142.901C186.922 142.901 193.1 136.722 193.1 129.101C193.1 121.479 186.922 115.301 179.3 115.301C171.678 115.301 165.5 121.479 165.5 129.101C165.5 136.722 171.678 142.901 179.3 142.901Z" fill="url(#paint2_linear)"/>
<path d="M184.2 121.9C183.422 135.86 178.631 149.298 170.4 160.6C165.7 167.1 150.1 188.3 127.4 187.3C109.3 186.6 97.3001 172.1 90.3001 163.6C80.4664 151.739 74.3757 137.226 72.8001 121.9C72.0001 113.7 70.4001 96.5998 80.9001 80.1998C90.3001 65.4998 108.8 52.1998 130.8 53.6998C152.8 55.1998 167.6 72.6998 171.1 77.0998C185.2 95.1998 184.5 115.3 184.2 121.9Z" fill="#FFE2D9"/>
<path d="M184.3 121.701C183.8 120.001 183.1 117.601 182.3 114.601C175.7 91.3008 172.3 79.5008 169 76.6008C163.2 71.2008 158.4 74.9008 129 75.1008C99.6003 75.3008 95.6003 71.8008 88.5003 77.5008C81.4003 83.2008 77.1003 97.5008 74.9003 107.301C73.8394 112.038 73.1705 116.854 72.9003 121.701C68.6003 95.8008 77.1003 70.8008 95.3003 58.1008C108.5 48.8008 123.8 48.3008 128.6 48.3008C133.4 48.3008 148.6 48.8008 161.9 58.1008C180 70.8008 188.5 95.8008 184.3 121.701Z" fill="url(#paint3_linear)"/>
<path d="M70.1008 75.4006C73.6008 83.8006 83.7008 86.3006 91.3008 88.2006C93.9008 88.8006 99.2008 89.9006 117.301 88.9006C137.201 87.7006 141.601 86.9006 151.601 88.5006C157.201 89.4006 162.801 91.8006 165.901 97.0006C169.001 102.201 165.801 107.701 170.101 114.001C174.401 120.301 183.601 121.901 184.201 121.901C187.766 122.228 191.353 121.607 194.601 120.101C194.637 120.06 194.664 120.013 194.682 119.961C194.699 119.909 194.705 119.855 194.701 119.801C194.701 112.701 194.001 89.7006 177.101 70.0006C165.201 56.2006 151.201 50.9006 143.201 47.9006C143.201 47.9006 119.001 39.1006 91.1008 45.7006C84.8008 47.2006 79.8008 49.1006 75.7008 53.5006C71.6008 57.9006 67.0008 67.6006 70.1008 75.4006Z" fill="#253858"/>
</g>
<defs>
<linearGradient id="paint0_linear" x1="131.12" y1="167.531" x2="131.12" y2="228.431" gradientUnits="userSpaceOnUse">
<stop stop-color="#EBBEAE"/>
<stop offset="0.64" stop-color="#FFE2D9"/>
</linearGradient>
<linearGradient id="paint1_linear" x1="63.57" y1="128.101" x2="91.11" y2="128.101" gradientUnits="userSpaceOnUse">
<stop stop-color="#FFE2D9"/>
<stop offset="1" stop-color="#EBBEAE"/>
</linearGradient>
<linearGradient id="paint2_linear" x1="165.5" y1="129.091" x2="193.04" y2="129.091" gradientUnits="userSpaceOnUse">
<stop stop-color="#EBBEAE"/>
<stop offset="1" stop-color="#FFE2D9"/>
</linearGradient>
<linearGradient id="paint3_linear" x1="128.58" y1="121.691" x2="128.58" y2="48.2908" gradientUnits="userSpaceOnUse">
<stop stop-color="#F0D0B4"/>
<stop offset="0.11" stop-color="#E1C5AD"/>
<stop offset="0.33" stop-color="#BBA89C"/>
<stop offset="0.63" stop-color="#7C7980"/>
<stop offset="0.99" stop-color="#273A59"/>
<stop offset="1" stop-color="#253858"/>
</linearGradient>
<clipPath id="clip0">
<path d="M0 0.599609H256V256.6H0V0.599609Z" fill="white"/>
</clipPath>
</defs>
</svg>
