<svg width="511" height="500" viewBox="0 0 511 500" fill="none" xmlns="http://www.w3.org/2000/svg">
<g clip-path="url(#clip0_38_578)">
<rect width="500" height="500" rx="40" fill="#FFF0B3"/>
<path d="M422.5 407.5H228.889V510H468.056V453.056C468.056 427.897 447.658 407.5 422.5 407.5Z" fill="#FA743E"/>
<path d="M285.833 350.556V418.889C285.833 437.76 301.129 453.056 320 453.056C338.871 453.056 354.167 437.76 354.167 418.889V350.556H285.833Z" fill="#D4AB88"/>
<path d="M411.111 464.444H422.5V510H411.111V464.444Z" fill="#DD551F"/>
<path d="M364.485 114.373C341.479 106.925 287.359 108.963 273.829 126.548C238.649 127.22 197.376 159.017 191.966 200.974C186.613 242.487 198.549 261.768 202.797 292.985C207.603 328.359 227.488 339.668 243.387 344.406C266.256 374.632 290.56 373.333 331.389 373.333C411.111 373.333 449.082 319.988 452.441 229.389C454.469 174.586 422.318 133.085 364.485 114.373Z" fill="#963B22"/>
<path d="M410.075 233.262C402.364 222.579 392.479 213.98 370.829 210.939C378.949 214.664 386.728 227.51 387.741 234.617C388.755 241.724 389.768 247.475 383.345 240.368C357.606 211.907 329.567 223.114 301.778 205.735C282.371 193.594 276.46 180.155 276.46 180.155C276.46 180.155 274.091 198.081 244.663 216.349C236.132 221.645 225.951 233.432 220.302 250.857C216.236 263.374 217.5 274.535 217.5 293.611C217.5 349.292 263.386 396.111 320 396.111C376.614 396.111 422.5 348.882 422.5 293.611C422.5 258.978 418.867 245.448 410.075 233.262Z" fill="#D4AB88"/>
<path d="M365.556 350.556H274.444C274.444 350.556 285.833 373.333 320 373.333C354.167 373.333 365.556 350.556 365.556 350.556ZM331.389 322.083H308.611C305.468 322.083 302.917 319.532 302.917 316.389C302.917 313.246 305.468 310.694 308.611 310.694H331.389C334.532 310.694 337.083 313.246 337.083 316.389C337.083 319.532 334.532 322.083 331.389 322.083Z" fill="#C1694F"/>
<path d="M274.444 282.222C268.158 282.222 263.056 277.12 263.056 270.833V259.445C263.056 253.158 268.158 248.056 274.444 248.056C280.731 248.056 285.833 253.158 285.833 259.445V270.833C285.833 277.12 280.731 282.222 274.444 282.222ZM365.556 282.222C359.269 282.222 354.167 277.12 354.167 270.833V259.445C354.167 253.158 359.269 248.056 365.556 248.056C371.842 248.056 376.944 253.158 376.944 259.445V270.833C376.944 277.12 371.842 282.222 365.556 282.222Z" fill="#662113"/>
<path d="M256.461 133.426C249.731 128.996 240.665 130.875 236.235 137.606L228.889 148.79V122.778C228.889 110.193 218.684 100 206.111 100H160.556C147.982 100 137.778 110.204 137.778 122.778V213.889C137.778 213.889 137.778 225.278 149.167 225.278H217.5L228.889 213.889V202.01L260.652 153.653C265.083 146.911 263.215 137.857 256.461 133.426Z" fill="#D4AB88"/>
<path d="M160.556 100H171.944V156.944H160.556V100ZM194.722 100H206.111V156.944H194.722V100Z" fill="#B78B60"/>
<path d="M217.5 407.5H251.667L228.889 510C137.778 510 137.778 407.5 137.778 407.5V213.889H228.889L217.5 407.5Z" fill="#FA743E"/>
</g>
<defs>
<clipPath id="clip0_38_578">
<rect width="511" height="500" fill="white"/>
</clipPath>
</defs>
</svg>
