<svg width="256" height="257" viewBox="0 0 256 257" fill="none" xmlns="http://www.w3.org/2000/svg">
<g clip-path="url(#clip0)">
<path d="M0 0.300781H256V256.301H0V0.300781Z" fill="white" fill-opacity="0.01"/>
<path d="M128 256.301C198.692 256.301 256 198.993 256 128.301C256 57.6083 198.692 0.300781 128 0.300781C57.3075 0.300781 0 57.6083 0 128.301C0 198.993 57.3075 256.301 128 256.301Z" fill="#57D9A3"/>
<path d="M216.7 220.6L180 196.3C179.205 195.841 178.316 195.568 177.4 195.5L130.3 193L83.1002 195.5C82.213 195.553 81.3533 195.828 80.6002 196.3L41.2002 222.4C65.186 244.496 96.6964 256.612 129.307 256.278C161.917 255.943 193.173 243.183 216.7 220.6Z" fill="#79F2C0"/>
<path d="M161.9 175.602C161.54 181.434 161.977 187.288 163.2 193.002C163.9 195.502 167.2 196.502 169.9 198.002C170.241 198.243 170.473 198.609 170.548 199.02C170.623 199.431 170.534 199.855 170.3 200.202C165 207.002 156.2 213.602 146.6 217.902C146.062 218.134 145.632 218.563 145.4 219.102L132.4 246.802C132.179 247.22 131.848 247.571 131.443 247.815C131.038 248.06 130.573 248.189 130.1 248.189C129.627 248.189 129.162 248.06 128.757 247.815C128.352 247.571 128.021 247.22 127.8 246.802L114.7 219.102C114.578 218.822 114.4 218.572 114.176 218.365C113.952 218.159 113.688 218.001 113.4 217.902C103.9 213.602 95.1001 207.002 89.8001 200.202C89.6721 200.043 89.5801 199.859 89.5305 199.662C89.4809 199.464 89.4749 199.259 89.513 199.059C89.5511 198.859 89.6323 198.67 89.7509 198.504C89.8696 198.339 90.0229 198.202 90.2001 198.102C92.9001 196.502 96.2001 195.502 96.9001 193.002C98.1233 187.288 98.5606 181.434 98.2001 175.602H161.9Z" fill="#DDB28D"/>
<path d="M194.3 113.001C194.5 119.301 183.9 132.801 177.6 133.001C171.3 133.201 171.6 120.101 171.3 113.801C171.194 110.752 172.304 107.784 174.385 105.553C176.467 103.321 179.35 102.008 182.4 101.901C185.45 101.795 188.417 102.905 190.649 104.987C192.88 107.069 194.194 109.952 194.3 113.001Z" fill="#ECC19C"/>
<path d="M64.1003 113.001C63.8003 119.301 74.4003 132.801 80.7003 133.001C87.0003 133.201 86.8003 120.101 87.0003 113.801C87.1934 112.219 87.0554 110.614 86.5952 109.088C86.135 107.562 85.3626 106.148 84.3269 104.936C83.2913 103.725 82.0151 102.742 80.5793 102.049C79.1435 101.357 77.5795 100.971 75.9865 100.915C74.3935 100.86 72.8063 101.136 71.3257 101.726C69.8451 102.316 68.5034 103.208 67.3857 104.345C66.268 105.481 65.3988 106.837 64.8332 108.328C64.2677 109.818 64.0181 111.409 64.1003 113.001Z" fill="#ECC19C"/>
<path d="M121.8 187.101C126.736 188.499 131.964 188.499 136.9 187.101C176.2 176.101 169.9 172.101 185 105.601C193.6 67.4006 187.4 24.6006 129.4 26.4006C71.3002 24.6006 65.1002 67.4006 73.7002 105.601C88.8002 172.101 82.5002 176.101 121.8 187.101Z" fill="url(#paint0_linear)"/>
<path d="M129.1 164.301C140 163.901 144.5 169.301 148.6 166.201C152.7 163.101 152.7 156.901 150.2 154.401C149.4 153.501 148.5 153.401 143.3 153.101C134 152.601 133.1 152.901 128.8 152.401C124.5 151.901 123.8 151.501 120.8 151.601C118.168 151.683 115.553 152.052 113 152.701C109.9 153.401 108.3 153.701 107.8 154.401C105.7 156.901 107.5 164.001 111.8 166.501C116.1 169.001 119.5 164.601 129.1 164.301Z" fill="#ECC19C"/>
<path d="M129.4 135.901C145.6 135.901 157.1 145.201 165.2 140.001C173.3 134.801 177.8 115.201 180.1 108.001C182.159 101.263 182.571 94.1301 181.3 87.2007C180.9 84.5007 177.6 81.0007 176.2 74.7007C175.729 72.7978 175.428 70.8568 175.3 68.9007C168.529 68.0955 161.692 67.995 154.9 68.6007C128.5 71.2007 116.5 84.4007 99.9 79.4007C96.3 78.4007 90.8 75.9007 85 69.5007C83.2054 71.5945 81.6925 73.9142 80.5 76.4007C78.8731 79.8032 77.8254 83.4533 77.4 87.2007C76.3899 94.1438 76.7982 101.22 78.6 108.001C80.9 115.201 85.5 134.901 93.5 140.001C101.5 145.101 113.1 135.901 129.4 135.901Z" fill="#ECC19C"/>
<g style="mix-blend-mode:multiply" opacity="0.36">
<path style="mix-blend-mode:multiply" opacity="0.36" d="M162.7 151.601C171.371 151.601 178.4 144.572 178.4 135.901C178.4 127.23 171.371 120.201 162.7 120.201C154.029 120.201 147 127.23 147 135.901C147 144.572 154.029 151.601 162.7 151.601Z" fill="url(#paint1_radial)"/>
</g>
<g style="mix-blend-mode:multiply" opacity="0.36">
<path style="mix-blend-mode:multiply" opacity="0.36" d="M98.1004 152.502C106.771 152.502 113.8 145.472 113.8 136.802C113.8 128.131 106.771 121.102 98.1004 121.102C89.4295 121.102 82.4004 128.131 82.4004 136.802C82.4004 145.472 89.4295 152.502 98.1004 152.502Z" fill="url(#paint2_radial)"/>
</g>
</g>
<defs>
<linearGradient id="paint0_linear" x1="129.36" y1="185.711" x2="129.36" y2="27.3006" gradientUnits="userSpaceOnUse">
<stop stop-color="#253858"/>
<stop offset="1" stop-color="#42526E"/>
</linearGradient>
<radialGradient id="paint1_radial" cx="0" cy="0" r="1" gradientUnits="userSpaceOnUse" gradientTransform="translate(162.899 136.034) scale(15.6816)">
<stop stop-color="#FFD5C4"/>
<stop offset="0.1" stop-color="#FFD5C4" stop-opacity="0.98"/>
<stop offset="0.22" stop-color="#FED5C3" stop-opacity="0.92"/>
<stop offset="0.36" stop-color="#FCD4C1" stop-opacity="0.82"/>
<stop offset="0.51" stop-color="#FAD3BF" stop-opacity="0.67"/>
<stop offset="0.66" stop-color="#F7D2BD" stop-opacity="0.49"/>
<stop offset="0.83" stop-color="#F4D1BA" stop-opacity="0.27"/>
<stop offset="0.99" stop-color="#F0D0B6" stop-opacity="0.01"/>
<stop offset="1" stop-color="#F0D0B6" stop-opacity="0"/>
</radialGradient>
<radialGradient id="paint2_radial" cx="0" cy="0" r="1" gradientUnits="userSpaceOnUse" gradientTransform="translate(3150.81 4884.8) scale(497.376 497.376)">
<stop stop-color="#FFD5C4"/>
<stop offset="0.1" stop-color="#FFD5C4" stop-opacity="0.98"/>
<stop offset="0.22" stop-color="#FED5C3" stop-opacity="0.92"/>
<stop offset="0.36" stop-color="#FCD4C1" stop-opacity="0.82"/>
<stop offset="0.51" stop-color="#FAD3BF" stop-opacity="0.67"/>
<stop offset="0.66" stop-color="#F7D2BD" stop-opacity="0.49"/>
<stop offset="0.83" stop-color="#F4D1BA" stop-opacity="0.27"/>
<stop offset="0.99" stop-color="#F0D0B6" stop-opacity="0.01"/>
<stop offset="1" stop-color="#F0D0B6" stop-opacity="0"/>
</radialGradient>
<clipPath id="clip0">
<path d="M0 0.300781H256V256.301H0V0.300781Z" fill="white"/>
</clipPath>
</defs>
</svg>
