<svg width="256" height="257" viewBox="0 0 256 257" fill="none" xmlns="http://www.w3.org/2000/svg">
<g clip-path="url(#clip0)">
<path d="M0 0.300781H256V256.301H0V0.300781Z" fill="white" fill-opacity="0.01"/>
<path d="M128 256.301C198.692 256.301 256 198.993 256 128.301C256 57.6083 198.692 0.300781 128 0.300781C57.3075 0.300781 0 57.6083 0 128.301C0 198.993 57.3075 256.301 128 256.301Z" fill="#FFAB00"/>
<path d="M80.2 53.2993C74.9 54.9993 68.7 57.9993 66.6 63.6993C64.5 69.3993 71.3 76.3993 67.9 83.3993C65.8 87.7993 62.2 87.3993 59.3 93.4993C57.901 96.3634 57.1823 99.5119 57.2 102.699C56.9 111.099 61.4 114.299 63.2 120.599C66.7 133.199 53.6 140.099 55.5 151.499C56.4 156.999 60.7 163.899 75.5 170.699C74.0902 175.26 74.0902 180.139 75.5 184.699C77.3693 189.737 80.7151 194.094 85.1 197.199C96.1 204.599 104.5 195.799 128.3 196.999C143.9 197.799 148.1 201.999 159.6 198.699C164 197.499 172.3 194.899 176.3 187.099C178.325 182.762 178.886 177.884 177.9 173.199C180.3 173.199 187.7 172.999 193.5 167.599C199.3 162.199 201.8 151.299 199.7 142.999C197.6 134.699 192 129.399 193.5 120.599C194.5 114.699 197.2 110.299 196.4 101.799C196.136 98.3646 195.148 95.0247 193.5 91.9993C190.7 87.0993 188.2 87.4993 186.6 84.2993C183.4 77.4993 192.7 70.7993 190.1 63.6993C187.5 56.5993 179.8 57.1993 176.5 53.2993C164.4 51.6993 164.9 44.1993 152.7 44.1993C140.5 44.1993 140.5 53.3993 128.3 53.3993C116.1 53.3993 115.7 43.2993 103.6 44.1993C91.5 45.0993 92.3 51.6993 80.2 53.2993Z" fill="#FAFBFC"/>
<path d="M170.7 207.5L131.6 205.5L92.6002 207.5C91.8552 207.567 91.1361 207.806 90.5002 208.2L55.1002 231.6L53.7002 232.6C75.9936 248.453 102.776 256.753 130.128 256.285C157.479 255.817 183.962 246.606 205.7 230L172.8 208.2C172.152 207.834 171.439 207.596 170.7 207.5Z" fill="#FF8B00"/>
<path d="M168.3 209.2C167.3 210.6 152.4 230 127.8 228.3C107.3 227 95.7004 212.1 93.9004 209.8C98.7852 205.736 102.137 200.127 103.4 193.9C106.2 180.1 97.1004 169.7 96.0004 168.5L163.4 166C162.1 168 155 179.3 158.6 193.2C160.284 199.331 163.643 204.872 168.3 209.2Z" fill="url(#paint0_linear)"/>
<path d="M77.3 140.6C84.9215 140.6 91.1 134.422 91.1 126.8C91.1 119.178 84.9215 113 77.3 113C69.6785 113 63.5 119.178 63.5 126.8C63.5 134.422 69.6785 140.6 77.3 140.6Z" fill="url(#paint1_linear)"/>
<path d="M179.3 140.6C186.922 140.6 193.1 134.422 193.1 126.8C193.1 119.178 186.922 113 179.3 113C171.678 113 165.5 119.178 165.5 126.8C165.5 134.422 171.678 140.6 179.3 140.6Z" fill="url(#paint2_linear)"/>
<path d="M80.9 99.0992C80.9 105.499 80.7 111.499 80.5 117.299C80.3 123.099 80.1 122.199 79.8 127.699C79 143.199 79.8 147.199 76.5 150.899C73.2 154.599 71 155.099 69.7 154.199C68.4 153.299 70.4 149.599 71.1 144.099C73.1 130.599 68.6 117.099 68.2 115.899C67.8 114.699 66.1 110.499 66.3 106.499C66.4 104.099 66.7 98.7992 70.4 96.7992C74.1 94.7992 77.6 96.1992 80.9 99.0992Z" fill="#FAFBFC"/>
<path d="M184.2 121.6C183 151.2 152.3 185.2 128.5 185.2C104.7 185.2 73.9999 151.2 72.7999 121.6C71.4999 88.8996 95.9999 52.0996 128.5 52.0996C161 52.0996 185.5 88.8996 184.2 121.6Z" fill="#FFE2D9"/>
<path d="M69.2001 136.1C70.0838 136.1 70.8001 135.384 70.8001 134.5C70.8001 133.617 70.0838 132.9 69.2001 132.9C68.3164 132.9 67.6001 133.617 67.6001 134.5C67.6001 135.384 68.3164 136.1 69.2001 136.1Z" fill="#0065FF"/>
<path d="M185.2 136.1C186.084 136.1 186.8 135.384 186.8 134.5C186.8 133.617 186.084 132.9 185.2 132.9C184.316 132.9 183.6 133.617 183.6 134.5C183.6 135.384 184.316 136.1 185.2 136.1Z" fill="#0065FF"/>
<path d="M64.5002 63.9006C69.7002 47.1006 84.1002 36.1006 96.0002 33.4006C99.9188 32.3804 104.01 32.2099 108 32.9006C113.888 34.1356 119.26 37.1355 123.4 41.5006C113.1 59.3006 102.8 69.5006 95.2002 75.6006C91.1002 78.8006 82.3002 85.2006 76.9002 97.0006C75.3005 100.446 74.1252 104.072 73.4002 107.801C72.2002 106.301 57.2002 87.1006 64.5002 63.9006Z" fill="#FAFBFC"/>
<path d="M138.4 27.1001C145.741 27.1001 153.01 28.546 159.792 31.3553C166.574 34.1645 172.737 38.2821 177.928 43.4729C183.118 48.6637 187.236 54.826 190.045 61.6081C192.854 68.3902 194.3 75.6592 194.3 83.0001C194.234 87.8251 193.596 92.6252 192.4 97.3001C190.695 103.323 187.843 108.959 184 113.9C168.747 108.265 154.213 100.847 140.7 91.8001C123.033 80.0518 107.253 65.688 93.9004 49.2001C97.6004 44.5001 106.7 34.2001 122 29.5001C127.316 27.8852 132.845 27.0762 138.4 27.1001Z" fill="#FAFBFC"/>
</g>
<defs>
<linearGradient id="paint0_linear" x1="131.12" y1="167.23" x2="131.12" y2="228.13" gradientUnits="userSpaceOnUse">
<stop stop-color="#EBBEAE"/>
<stop offset="0.64" stop-color="#FFE2D9"/>
</linearGradient>
<linearGradient id="paint1_linear" x1="63.57" y1="126.81" x2="91.11" y2="126.81" gradientUnits="userSpaceOnUse">
<stop stop-color="#FFE2D9"/>
<stop offset="1" stop-color="#EBBEAE"/>
</linearGradient>
<linearGradient id="paint2_linear" x1="165.5" y1="126.81" x2="193.04" y2="126.81" gradientUnits="userSpaceOnUse">
<stop stop-color="#EBBEAE"/>
<stop offset="1" stop-color="#FFE2D9"/>
</linearGradient>
<clipPath id="clip0">
<path d="M0 0.300781H256V256.301H0V0.300781Z" fill="white"/>
</clipPath>
</defs>
</svg>
